<?xml version="1.0" encoding="UTF-8"?>
<svg width="800px" height="800px" viewBox="0 0 800 800" xmlns="http://www.w3.org/2000/svg">
  <defs>
    <linearGradient id="blueGradient" x1="0%" y1="0%" x2="100%" y2="100%">
      <stop offset="0%" stop-color="#5AC8FA" stop-opacity="0.8"/>
      <stop offset="100%" stop-color="#007AFF" stop-opacity="0.8"/>
    </linearGradient>
    <filter id="glow" x="-20%" y="-20%" width="140%" height="140%">
      <feGaussianBlur stdDeviation="10" result="blur"/>
      <feComposite in="SourceGraphic" in2="blur" operator="over"/>
    </filter>
  </defs>
  
  <!-- Main DNA helix -->
  <g filter="url(#glow)">
    <!-- Left strand -->
    <path d="M 250,50 C 350,100 400,150 250,200 C 100,250 150,300 250,350 C 350,400 400,450 250,500 C 100,550 150,600 250,650 C 350,700 400,750 250,800" 
          fill="none" stroke="url(#blueGradient)" stroke-width="20" stroke-linecap="round"/>
    
    <!-- Right strand -->
    <path d="M 550,50 C 450,100 400,150 550,200 C 700,250 650,300 550,350 C 450,400 400,450 550,500 C 700,550 650,600 550,650 C 450,700 400,750 550,800" 
          fill="none" stroke="url(#blueGradient)" stroke-width="20" stroke-linecap="round"/>
    
    <!-- Connecting rungs -->
    <line x1="250" y1="50" x2="550" y2="50" stroke="rgba(255,255,255,0.7)" stroke-width="10"/>
    <line x1="250" y1="200" x2="550" y2="200" stroke="rgba(255,255,255,0.7)" stroke-width="10"/>
    <line x1="250" y1="350" x2="550" y2="350" stroke="rgba(255,255,255,0.7)" stroke-width="10"/>
    <line x1="250" y1="500" x2="550" y2="500" stroke="rgba(255,255,255,0.7)" stroke-width="10"/>
    <line x1="250" y1="650" x2="550" y2="650" stroke="rgba(255,255,255,0.7)" stroke-width="10"/>
    <line x1="250" y1="800" x2="550" y2="800" stroke="rgba(255,255,255,0.7)" stroke-width="10"/>
  </g>
  
  <!-- Circuit pattern background -->
  <g opacity="0.15" stroke="#007AFF" stroke-width="1">
    <path d="M 50,400 L 200,400 L 200,450 L 300,450" fill="none"/>
    <path d="M 750,400 L 600,400 L 600,450 L 500,450" fill="none"/>
    <path d="M 50,300 L 150,300 L 150,250 L 250,250" fill="none"/>
    <path d="M 750,300 L 650,300 L 650,250 L 550,250" fill="none"/>
    
    <!-- Circuit dots -->
    <circle cx="200" cy="400" r="4" fill="#007AFF"/>
    <circle cx="150" cy="300" r="4" fill="#007AFF"/>
    <circle cx="600" cy="400" r="4" fill="#007AFF"/>
    <circle cx="650" cy="300" r="4" fill="#007AFF"/>
  </g>
  
  <!-- Floating pills -->
  <ellipse cx="150" cy="150" rx="40" ry="20" fill="rgba(90, 200, 250, 0.2)" filter="url(#glow)"/>
  <ellipse cx="650" cy="650" rx="40" ry="20" fill="rgba(90, 200, 250, 0.2)" filter="url(#glow)"/>
  <ellipse cx="700" cy="200" rx="30" ry="15" fill="rgba(90, 200, 250, 0.2)" filter="url(#glow)"/>
</svg> 