<svg xmlns="http://www.w3.org/2000/svg" viewBox="0 0 500 500" width="500" height="500">
  <!-- Apple-themed S with DNA -->
  <g>
    <!-- Base circle with gradient -->
    <circle cx="250" cy="250" r="220" fill="url(#appleSilver)" />
    
    <!-- S letter - simplified and sleek -->
    <path d="M325 140c-15-14-38-21-68-21-18 0-34 3-48 9s-25 14-32 24c-7 10-11 22-11 35 0 15 5 27 14 36s20 16 33 21c13 5 27 9 42 13s29 8 42 12c13 4 23 10 32 17 9 7 13 16 13 28 0 12-5 22-15 28s-24 10-41 10c-17 0-31-3-42-10s-19-16-23-28c-3-7-6-13-10-17s-9-6-15-6c-7 0-13 2-18 7s-7 10-7 17c0 8 2 17 7 26s11 18 21 25 22 13 36 18 31 7 51 7c20 0 39-3 55-9s30-15 39-27c9-12 14-26 14-42 0-16-4-28-13-38s-19-17-32-22-27-10-42-13-29-7-42-11c-13-4-23-9-32-15s-13-14-13-25c0-11 5-20 14-26s21-9 37-9c12 0 22 2 30 5s15 8 20 14c5 6 9 12 11 19c2 7 6 12 11 15s11 5 17 5c7 0 13-2 18-7s7-10 7-17c0-6-2-13-6-21s-10-15-18-22z" 
        fill="#333" stroke="#000" stroke-width="5"/>
    
    <!-- DNA strands - thinner, sleeker -->
    <g stroke="#333" stroke-width="5" stroke-linecap="round">
      <!-- Left DNA strand -->
      <path d="M190 400c25-25 25-60 0-85s-25-60 0-85s25-60 0-85" fill="none" opacity="0.8"/>
      
      <!-- Right DNA strand -->
      <path d="M310 400c-25-25-25-60 0-85s25-60 0-85s25-60 0-85" fill="none" opacity="0.8"/>
      
      <!-- DNA rungs - simplified -->
      <line x1="190" y1="145" x2="310" y2="145" opacity="0.7"/>
      <line x1="190" y1="230" x2="310" y2="230" opacity="0.7"/>
      <line x1="190" y1="315" x2="310" y2="315" opacity="0.7"/>
    </g>
  </g>
  
  <!-- Gradient definition -->
  <defs>
    <linearGradient id="appleSilver" x1="0%" y1="0%" x2="100%" y2="100%">
      <stop offset="0%" stop-color="#f5f5f7" />
      <stop offset="50%" stop-color="#d2d2d7" />
      <stop offset="100%" stop-color="#a1a1a6" />
    </linearGradient>
  </defs>
</svg> 