<?xml version="1.0" encoding="UTF-8"?>
<svg xmlns="http://www.w3.org/2000/svg" viewBox="0 0 500 500" width="500" height="500">
  <!-- Colorful modern S with gradient background -->
  <defs>
    <!-- Background gradient -->
    <linearGradient id="bgGradient" x1="0%" y1="0%" x2="100%" y2="100%">
      <stop offset="0%" stop-color="#3b82f6" />
      <stop offset="50%" stop-color="#8b5cf6" />
      <stop offset="100%" stop-color="#ec4899" />
    </linearGradient>
    
    <!-- Capsule gradient -->
    <linearGradient id="capsuleGradient" x1="0%" y1="0%" x2="100%" y2="100%">
      <stop offset="0%" stop-color="#60a5fa" />
      <stop offset="100%" stop-color="#3b82f6" />
    </linearGradient>
    
    <!-- Vitamin gradient -->
    <linearGradient id="vitaminGradient" x1="0%" y1="0%" x2="100%" y2="100%">
      <stop offset="0%" stop-color="#fcd34d" />
      <stop offset="100%" stop-color="#f59e0b" />
    </linearGradient>
  </defs>
  
  <!-- Background circle with colorful gradient -->
  <circle cx="250" cy="250" r="220" fill="url(#bgGradient)" />
  
  <!-- Inner circle for cleaner background -->
  <circle cx="250" cy="250" r="200" fill="white" />
  
  <!-- Stylized S as a modern supplement icon -->
  <g transform="translate(250, 250) scale(0.85) translate(-250, -250)">
    <!-- Main capsule shape -->
    <path d="M325 140c-15-14-38-21-68-21-18 0-34 3-48 9s-25 14-32 24c-7 10-11 22-11 35 0 15 5 27 14 36s20 16 33 21c13 5 27 9 42 13s29 8 42 12c13 4 23 10 32 17 9 7 13 16 13 28 0 12-5 22-15 28s-24 10-41 10c-17 0-31-3-42-10s-19-16-23-28c-3-7-6-13-10-17s-9-6-15-6c-7 0-13 2-18 7s-7 10-7 17c0 8 2 17 7 26s11 18 21 25 22 13 36 18 31 7 51 7c20 0 39-3 55-9s30-15 39-27c9-12 14-26 14-42 0-16-4-28-13-38s-19-17-32-22-27-10-42-13-29-7-42-11c-13-4-23-9-32-15s-13-14-13-25c0-11 5-20 14-26s21-9 37-9c12 0 22 2 30 5s15 8 20 14c5 6 9 12 11 19c2 7 6 12 11 15s11 5 17 5c7 0 13-2 18-7s7-10 7-17c0-6-2-13-6-21s-10-15-18-22z" 
        fill="url(#capsuleGradient)" stroke="none" />
  </g>
  
  <!-- Vitamin pills scattered around -->
  <circle cx="175" cy="175" r="25" fill="url(#vitaminGradient)" />
  <circle cx="325" cy="325" r="18" fill="#a855f7" />
  <circle cx="175" cy="325" r="15" fill="#ec4899" />
  <circle cx="325" cy="175" r="12" fill="#10b981" />
  
  <!-- Decorative rings representing health and supplements -->
  <circle cx="250" cy="250" r="190" fill="none" stroke="#3b82f6" stroke-width="3" stroke-dasharray="5,5" opacity="0.5" />
  <circle cx="250" cy="250" r="170" fill="none" stroke="#8b5cf6" stroke-width="2" stroke-dasharray="3,3" opacity="0.3" />
</svg> 